<svg width="24" height="24" xmlns="http://www.w3.org/2000/svg">

 <g>
  <title>background</title>
  <rect fill="none" id="canvas_background" height="602" width="802" y="-1" x="-1"/>
 </g>
 <g>
  <title>Layer 1</title>
  <path stroke="null" id="svg_9" d="m20.29511,23.71521c-0.90507,0 -1.81014,-0.34412 -2.49837,-1.03706l-16.49869,-16.49869c-1.38118,-1.38118 -1.38118,-3.62028 0,-5.00146s3.62028,-1.38118 5.00146,0l16.49869,16.49869c1.38118,1.38118 1.38118,3.62028 0,5.00146c-0.69295,0.69295 -1.59802,1.03706 -2.50309,1.03706z"/>
  <path stroke="null" id="svg_10" d="m3.69522,23.83333c-0.90964,0 -1.81928,-0.34585 -2.51099,-1.0423c-1.38815,-1.38815 -1.38815,-3.63857 0,-5.02672l16.58201,-16.58201c1.38815,-1.38815 3.63857,-1.38815 5.02672,0s1.38815,3.63857 0,5.02672l-16.58201,16.58201c-0.69644,0.69644 -1.60609,1.0423 -2.51573,1.0423z"/>
 </g>
</svg>