<svg width="600" height="600" xmlns="http://www.w3.org/2000/svg">
 <!-- Created with Method Draw - http://github.com/duopixel/Method-Draw/ -->


 <g>
  <title>Layer 1</title>
  <g stroke="null" id="svg_9">
   <path stroke="null" stroke-width="0" fill="#000000" d="m240.71493,419.09916c-9.21419,0 -18.42838,-3.50241 -25.43321,-10.55814l-167.98338,-167.98338c-14.06055,-14.06055 -14.06055,-36.85677 0,-50.91732c14.06055,-14.06055 36.85677,-14.06055 50.9275,0l167.9732,167.98338c14.06055,14.06055 14.06055,36.85677 0,50.91732c-7.05573,7.05573 -16.26992,10.55814 -25.48411,10.55814z" id="svg_7"/>
   <path stroke="null" stroke-width="0" fill="#000000" d="m71.70322,420.30057c-9.25492,0 -18.52002,-3.51259 -25.56557,-10.60905c-14.13182,-14.13182 -14.13182,-37.05022 0,-51.18204l168.82844,-168.82844c14.13182,-14.13182 37.05022,-14.13182 51.18204,0c14.13182,14.13182 14.13182,37.05022 0,51.18204l-168.82844,168.82844c-7.09646,7.08627 -16.35137,10.60905 -25.61647,10.60905z" id="svg_6"/>
  </g>
  <g stroke="null" id="svg_16">
   <path stroke="null" stroke-width="0" fill="#ffffff" d="m444.50003,419.39236c-65.70977,0 -119.18644,-53.47667 -119.18644,-119.18644c0,-65.70977 53.47667,-119.18644 119.18644,-119.18644c65.70977,0 119.18644,53.47667 119.18644,119.18644c0,65.70977 -53.47667,119.18644 -119.18644,119.18644zm0,-178.77966c-32.85488,0 -59.59322,26.73834 -59.59322,59.59322c0,32.85488 26.73834,59.59322 59.59322,59.59322c32.85488,0 59.59322,-26.73834 59.59322,-59.59322c0,-32.85488 -26.73834,-59.59322 -59.59322,-59.59322z" id="svg_14"/>
  </g>
 </g>
</svg>